<svg class="ct-logo-img" width="150" height="16.8" viewBox="0 0 500 56" xmlns="http://www.w3.org/2000/svg"><title>Codrops</title><path d="M35.278 55.47c-5.79 0-10.896-.712-15.315-2.134-4.42-1.422-8.102-3.378-11.048-5.867-2.946-2.489-5.169-5.422-6.667-8.8C.749 35.29 0 31.646 0 27.735c0-3.912.75-7.556 2.248-10.934 1.498-3.378 3.72-6.312 6.667-8.8 2.946-2.49 6.629-4.445 11.048-5.868C24.383.711 29.487 0 35.278 0c5.486 0 10.312.584 14.477 1.752 4.165 1.169 7.721 2.782 10.667 4.839 2.946 2.057 5.258 4.457 6.934 7.2a24.18 24.18 0 0 1 3.276 8.839H54.174c-.304-1.118-.876-2.223-1.714-3.315s-2.02-2.082-3.543-2.971c-1.524-.89-3.403-1.613-5.639-2.172-2.235-.559-4.901-.838-8-.838s-5.829.368-8.19 1.105c-2.363.736-4.331 1.752-5.906 3.048-1.575 1.295-2.756 2.819-3.543 4.571-.787 1.753-1.181 3.645-1.181 5.677 0 2.032.394 3.924 1.181 5.676.787 1.753 1.968 3.277 3.543 4.572 1.575 1.295 3.543 2.311 5.905 3.048 2.362.736 5.092 1.105 8.191 1.105 3.099 0 5.765-.28 8-.839 2.236-.558 4.115-1.282 5.639-2.171 1.524-.889 2.705-1.88 3.543-2.972.838-1.092 1.41-2.197 1.714-3.314h16.458a24.533 24.533 0 0 1-3.276 8.877c-1.676 2.768-3.975 5.168-6.896 7.2-2.92 2.032-6.476 3.632-10.667 4.8-4.19 1.168-9.029 1.753-14.515 1.753Zm76.958 0c-5.943 0-11.15-.712-15.62-2.134-4.47-1.422-8.203-3.39-11.2-5.905-2.997-2.514-5.245-5.46-6.743-8.838-1.499-3.378-2.248-6.998-2.248-10.858 0-3.912.75-7.543 2.248-10.896 1.498-3.353 3.746-6.286 6.743-8.8 2.997-2.515 6.73-4.483 11.2-5.906C101.087.711 106.294 0 112.237 0c5.944 0 11.15.711 15.62 2.133 4.47 1.423 8.204 3.391 11.2 5.906 2.998 2.514 5.246 5.447 6.744 8.8 1.499 3.353 2.248 6.984 2.248 10.896 0 3.86-.75 7.48-2.248 10.858-1.498 3.378-3.746 6.324-6.743 8.838-2.997 2.515-6.73 4.483-11.2 5.905-4.47 1.422-9.677 2.134-15.62 2.134Zm0-13.334c3.251 0 6.096-.369 8.534-1.105 2.438-.737 4.458-1.753 6.058-3.048 1.6-1.295 2.794-2.82 3.58-4.572.788-1.752 1.182-3.644 1.182-5.676s-.394-3.924-1.181-5.677c-.787-1.752-1.981-3.276-3.581-4.571-1.6-1.296-3.62-2.312-6.058-3.048-2.438-.737-5.283-1.105-8.534-1.105-3.25 0-6.095.368-8.533 1.105-2.439.736-4.458 1.752-6.058 3.048-1.6 1.295-2.794 2.819-3.58 4.571-.788 1.753-1.182 3.645-1.182 5.677 0 2.032.394 3.924 1.181 5.676.787 1.753 1.981 3.277 3.581 4.572 1.6 1.295 3.62 2.311 6.058 3.048 2.438.736 5.282 1.105 8.533 1.105Zm44.5 12.267V1.067h27.582c5.436 0 10.223.673 14.363 2.019 4.14 1.346 7.594 3.213 10.363 5.6 2.768 2.388 4.863 5.207 6.286 8.458 1.422 3.25 2.133 6.781 2.133 10.59 0 3.81-.711 7.34-2.133 10.592-1.423 3.25-3.518 6.07-6.286 8.457-2.769 2.388-6.223 4.255-10.363 5.6-4.14 1.347-8.927 2.02-14.363 2.02h-27.582Zm16.458-13.258h11.124c2.743 0 5.156-.343 7.239-1.029 2.083-.685 3.822-1.625 5.22-2.819 1.396-1.193 2.45-2.603 3.161-4.229.711-1.625 1.067-3.403 1.067-5.333 0-1.93-.356-3.708-1.067-5.334-.71-1.625-1.765-3.035-3.162-4.229-1.397-1.193-3.136-2.133-5.22-2.819-2.082-.686-4.495-1.028-7.238-1.028h-11.124v26.82Zm113.76 13.258h-19.658l-5.714-13.715c-.66-1.575-1.6-2.68-2.82-3.315-1.219-.635-2.946-.952-5.18-.952h-10.973v17.982h-16.458V1.067h35.812c3.81 0 7.111.419 9.905 1.257 2.794.838 5.105 2.02 6.934 3.543 1.828 1.524 3.187 3.327 4.076 5.41.889 2.082 1.333 4.368 1.333 6.857 0 2.185-.368 4.23-1.104 6.134-.737 1.905-1.74 3.556-3.01 4.953a15.205 15.205 0 0 1-4.496 3.39 14.75 14.75 0 0 1-5.486 1.524v1.372c1.423.05 2.705.216 3.848.495 1.143.28 2.21.75 3.2 1.41.99.66 1.905 1.549 2.743 2.666.839 1.118 1.639 2.515 2.4 4.191l4.648 10.134Zm-27.049-27.659c2.642 0 4.61-.597 5.905-1.79 1.296-1.194 1.943-2.756 1.943-4.686 0-1.93-.647-3.505-1.943-4.724-1.295-1.22-3.263-1.829-5.905-1.829h-18.21v13.03h18.21Zm67.358 28.726c-5.943 0-11.15-.712-15.62-2.134-4.47-1.422-8.203-3.39-11.2-5.905-2.997-2.514-5.245-5.46-6.744-8.838-1.498-3.378-2.247-6.998-2.247-10.858 0-3.912.749-7.543 2.247-10.896 1.499-3.353 3.747-6.286 6.744-8.8 2.997-2.515 6.73-4.483 11.2-5.906C316.113.711 321.32 0 327.263 0s11.15.711 15.62 2.133c4.47 1.423 8.204 3.391 11.2 5.906 2.998 2.514 5.245 5.447 6.744 8.8 1.498 3.353 2.248 6.984 2.248 10.896 0 3.86-.75 7.48-2.248 10.858-1.499 3.378-3.746 6.324-6.743 8.838-2.997 2.515-6.73 4.483-11.201 5.905-4.47 1.422-9.677 2.134-15.62 2.134Zm0-13.334c3.251 0 6.096-.369 8.534-1.105 2.438-.737 4.457-1.753 6.057-3.048 1.6-1.295 2.794-2.82 3.582-4.572.787-1.752 1.18-3.644 1.18-5.676s-.393-3.924-1.18-5.677c-.788-1.752-1.981-3.276-3.582-4.571-1.6-1.296-3.619-2.312-6.057-3.048-2.438-.737-5.283-1.105-8.534-1.105-3.25 0-6.095.368-8.534 1.105-2.438.736-4.457 1.752-6.057 3.048-1.6 1.295-2.794 2.819-3.581 4.571-.788 1.753-1.181 3.645-1.181 5.677 0 2.032.393 3.924 1.18 5.676.788 1.753 1.982 3.277 3.582 4.572 1.6 1.295 3.62 2.311 6.057 3.048 2.439.736 5.283 1.105 8.534 1.105Zm79.244-41.07c7.772 0 13.538 1.715 17.297 5.144 3.759 3.429 5.638 8.038 5.638 13.83 0 5.79-1.88 10.4-5.638 13.828-3.76 3.43-9.525 5.144-17.297 5.144h-18.286v15.39h-16.458V1.068h34.744Zm-.762 24.993c2.439 0 4.255-.56 5.448-1.677 1.194-1.117 1.79-2.565 1.79-4.343s-.596-3.225-1.79-4.343c-1.193-1.117-3.01-1.676-5.448-1.676h-18.439v12.039h18.44Zm62.33 29.41c-5.842 0-10.807-.52-14.897-1.561-4.089-1.042-7.403-2.477-9.943-4.305-2.54-1.829-4.394-4-5.562-6.515-1.168-2.514-1.753-5.245-1.753-8.19v-.915h16.763v.533c0 1.22.254 2.362.762 3.429.508 1.067 1.359 1.98 2.553 2.743 1.193.762 2.768 1.359 4.724 1.79 1.955.432 4.406.648 7.352.648 3.15 0 5.715-.152 7.696-.457 1.981-.305 3.518-.699 4.61-1.181 1.092-.483 1.841-1.054 2.248-1.714.406-.66.61-1.321.61-1.982 0-1.473-.674-2.577-2.02-3.314-1.346-.737-3.124-1.257-5.334-1.562-2.21-.305-4.71-.508-7.505-.61a265.366 265.366 0 0 1-8.61-.457 84.867 84.867 0 0 1-8.61-1.028c-2.794-.483-5.295-1.283-7.505-2.4-2.21-1.118-3.987-2.616-5.333-4.496-1.347-1.88-2.02-4.318-2.02-7.315 0-2.285.521-4.432 1.562-6.438 1.042-2.006 2.781-3.759 5.22-5.257 2.438-1.499 5.676-2.693 9.714-3.582C456.836.444 461.877 0 467.922 0c5.69 0 10.54.52 14.553 1.562 4.013 1.041 7.29 2.45 9.83 4.229 2.54 1.778 4.393 3.86 5.562 6.248a17.109 17.109 0 0 1 1.752 7.62v.685h-16.763v-.686c0-.914-.254-1.816-.762-2.705s-1.346-1.676-2.514-2.362c-1.168-.685-2.705-1.232-4.61-1.638-1.905-.406-4.254-.61-7.048-.61-3.098 0-5.613.14-7.543.42-1.93.279-3.442.66-4.534 1.143-1.092.482-1.828 1.028-2.21 1.638-.38.61-.57 1.219-.57 1.828 0 1.27.672 2.197 2.018 2.781 1.346.585 3.124 1.004 5.334 1.258 2.21.254 4.711.406 7.505.457 2.794.05 5.664.165 8.61.343 2.946.177 5.816.52 8.61 1.028 2.794.508 5.296 1.334 7.505 2.477 2.21 1.143 3.988 2.68 5.334 4.61 1.346 1.93 2.019 4.419 2.019 7.466 0 2.388-.546 4.661-1.638 6.82-1.092 2.159-2.883 4.038-5.372 5.638-2.489 1.6-5.778 2.87-9.867 3.81-4.09.94-9.105 1.41-15.049 1.41Z"></path></svg>