<svg width="427" height="649" xmlns="http://www.w3.org/2000/svg"><path d="M298.981 648.169c-6.687-45.068 5.843-93.642-12.999-135.125-16.779-36.941-54.453-59.167-90.401-77.979-35.949-18.811-74.366-38.316-95.293-73.075-2.916-4.844-5.691-10.187-11.392-12.135-3.215-1.099-6.916-.363-8.941 2.365-4.399 5.923 4.013 12.82 10.331 10.864 5.901-1.827 9.339-7.853 11.743-13.542a119.795 119.795 0 0 0 5.88-17.618c.606-2.431.052-5.103-1.697-6.897-4.029-4.134-9.466 1.262-8.308 5.653.987 3.739 5.148 5.926 9.015 5.899 5.723-.041 10.924-3.812 15.78-5.878 4.064-1.728 7.322-5.07 8.351-9.365 2.891-12.071-9.589-15.884-19.051-14.997-26.093 2.447-48.959 24.73-52.079 50.75-2.648 22.073 9.148 44.893 27.912 56.526 2.431 1.507 5.098-1.59 3.292-3.808-9.212-11.313-17.828-23.144-23.122-36.665-6.697-17.104-7.259-37.703 2.654-52.446a17.573 17.573 0 0 0 3.64-9.982c.078-1.944-.548-4.35-2.449-4.765-1.217-.266-2.487.495-3.141 1.556-1.224 1.988-.503 4.775 1.241 6.327 1.744 1.552 4.249 2.012 6.569 1.75 2.32-.263 4.511-1.168 6.665-2.07 8.628-3.614 17.822-7.865 22.335-16.059 1.477-2.683 2.373-5.756 2.102-8.807-.27-3.051-1.811-6.058-4.391-7.709-2.48-1.588-5.647-1.793-8.53-1.196-3.325.689-6.369 2.347-9.399 3.836l-18.514 9.26c-5.171 2.66-10.251 5.489-14.959 8.889-6.539 4.723-12.387 10.643-15.915 18.024a202.592 202.592 0 0 0-18.701 35.209c-2.72 6.623-5.126 13.753-3.985 20.821 1.334 8.264 7.246 14.96 13.135 20.909a314.83 314.83 0 0 0 38.081 32.776c10.007 7.317 19.69 15.059 28.942 23.311a836.011 836.011 0 0 0 59.549 48.39c1.212.896 3.297 1.594 3.899.213.415-.952-.42-1.954-1.186-2.655a403.656 403.656 0 0 0-74.74-54.145c-14.328-8.056-29.194-15.265-42.629-24.736-13.435-9.472-25.573-21.532-32.074-36.63-5.417-12.582-6.381-27.508-.847-40.073 3.292-7.477 6.599-14.949 9.277-22.667 7.125-20.535 15.637-40.671 29.949-56.819 3.31-3.735 8.48-7.54 12.859-4.247 1.029.774 1.782 1.891 2.189 3.112 1.237 3.71.063 7.295-1.092 10.755-4.23 12.671-9.421 26.469-19.774 34.244-1.263.949-2.905-.535-2.068-1.874 8.037-12.858 15.436-26.574 15.502-41.579.056-12.825-5.31-25.043-6.877-37.772-2.285-18.555 4.031-37.992 16.785-51.661 13.969-14.971 35.377-22.715 55.701-19.795 3.656.526 6.887 3.005 7.957 6.54 1.952 6.45-4.6 10.764-10.148 13.404-22.812 10.858-46.717 21.949-71.777 22.497-1.573.035-2.106-2.134-.698-2.834 16.605-8.252 35.463-11.303 53.881-14.2 12.562-1.977 26.564-3.647 36.98 3.647 9.384 6.571 13.109 18.598 16.632 29.331.597 1.819.567 3.851-.384 5.513-2.538 4.436-8.714 2.185-13.027-.01-12.151-6.185-26.208-8.882-39.665-6.692-14.522 2.364-28.206 10.619-36.04 23.146-1.216 1.946-1.445 4.446-.258 6.41 2.169 3.59 6.541 2.384 9.834.892 11.568-5.24 22.345-12.232 34.285-16.557 11.277-4.084 24.249-5.539 35.085-.634.995.451 1.296 1.756.62 2.614-7.323 9.299-17.905 15.997-29.46 18.584-13.296 2.977-27.748.483-39.225-6.89-1.948-1.251-4.628-.994-6.125.772-2.175 2.567.288 5.738 2.674 7.59 10.717 8.318 24.726 12.27 38.21 10.777 13.484-1.493 26.29-8.413 34.928-18.874 4.629-5.606 8.784-12.673 17.435-11.817 1.722.171 3.403.718 4.928 1.536 6.192 3.325 9.34 9.559 11.406 15.88 5.162 15.802 4.256 33.503-2.163 49.09-4.308 10.848-3.575 23.582 1.951 33.864 1.636 3.044 3.887 6.063 7.532 6.614 2.138.324 4.394-.629 5.312-2.587 1.521-3.244-1.343-6.368-3.724-8.812-2.375-2.439-4.58-6.403-1.986-8.912 1.459-1.412 3.714-1.502 5.563-.662 5.988 2.719 9.419 9.029 16.062 10.769 2.384.624 4.992.351 6.942-1.155 4-3.09 2.38-8.087 2.935-12.442.553-4.347 3.697-8.371 7.916-9.552 4.22-1.181 9.231.852 11.082 4.824.754 1.619 1.005 3.47 1.99 4.959 1.707 2.581 5.169 3.396 8.255 3.195 5.89-.383 11.718-4.149 13.481-9.781 1.764-5.632-1.569-12.653-7.327-13.948-1.705-.383-3.509-.292-5.163-.859-1.653-.566-3.193-2.146-2.847-3.859.341-1.691 2.254-2.537 3.957-2.811 7.204-1.159 14.71 3.563 17.449 10.327 2.739 6.764.936 14.935-3.848 20.445-4.785 5.509-12.193 8.41-19.49 8.42-6.985.01-14.631-2.273-20.538 1.455-3.326 2.1-5.433 6.018-5.3 9.949.134 3.93 2.527 7.717 6.042 9.479 6.27 3.143 13.957-.291 20.782 1.326 4.911 1.164 8.827 4.803 13.432 6.869 8.542 3.833 18.67 1.974 27.511 5.058 2.643.922 5.265 2.408 6.614 4.861 1.349 2.453.922 6.02-1.805 7.649-5.403 5.193-8.48 12.279-12.587 18.548-7.82 11.938-19.761 21.121-33.307 25.614-13.546 4.493-28.607 4.266-41.835-.828a95 95 0 0 1-24.61-17.693c-2.016-2.009-2.165-5.199-.418-7.445 7.817-10.053 10.787-24.183 21.135-31.708 6.787-4.935 15.529-6.072 23.863-7.054 9.381-1.106 19.321-2.131 27.899 1.823 4.66 2.148 9.032 5.772 14.157 5.522 1.099-.053 2.226-.287 3.28.026 1.055.312 1.978 1.46 1.554 2.475-.45 1.073-1.908 1.166-3.069 1.091-14.01-.907-28.214-1.197-41.947 1.721-14.32 3.042-28.23 9.854-37.412 21.319-.838 1.046-1.379 2.345-1.373 3.685.017 3.456 3.032 4.238 5.311 3.508 1.481-.474 2.726-1.474 3.934-2.454 3.658-2.967 7.326-5.94 11.29-8.485 9.627-6.18 20.802-9.679 32.126-11.308 11.323-1.629 22.834-1.448 34.25-.699 3.679.241 7.74.407 11.013-.978 1.434-.607 1.215-2.742-.312-3.042-4.09-.801-8.471-.176-12.464 1.164-5.109 1.715-9.769 4.517-14.572 6.961-16.027 8.152-34.027 12.39-52.008 12.244-3.395-.028-6.869-.198-10.106.827-3.237 1.026-6.253 3.566-6.721 6.929-.376 2.7.971 5.424 2.948 7.301 1.977 1.878 4.518 3.038 7.06 4.023 17.283 6.7 37.15 6.602 54.26-.526 2.473-1.03 4.966-2.259 6.695-4.306 1.728-2.047 2.511-5.106 1.234-7.461-1.532-2.823-5.195-3.574-8.398-3.794-12.794-.879-25.564 1.82-37.915 5.268-3.501.978-7.027 2.035-10.149 3.896-3.122 1.861-5.844 4.631-6.943 8.095-1.954 6.159 1.577 12.725 5.868 17.557 8.731 9.833 20.74 16.023 32.761 22.485 14.487 5.328 26.028 18.435 41.387 19.982 6.272.632 12.598-.792 18.506-2.99 13.239-4.926 24.779-13.692 34.626-23.819 9.846-10.128 18.134-21.643 26.257-33.18 16.491-21.247 31.536-44.518 37.258-70.797 5.946-27.304 1.408-55.629-1.588-83.411-2.488-23.076-3.896-46.268-4.015-69.023.377-6.301.812-12.833 4.837-18.062 1.497-1.945 3.49-3.521 5.817-4.302 7.077-2.375 12.385 2.776 16.178 7.916 9.647 13.073 15.206 29.117 15.716 45.356.509 16.239-4.034 32.6-12.842 46.252-3.843 5.956-8.577 11.49-14.625 15.187-4.662 2.849-11.122 4.418-15.116.072-1.894-2.061-2.584-4.964-2.204-7.737.686-5.006 4.267-8.808 8.238-11.648 3.358-2.403 7.076-4.269 10.416-6.696 2.826-2.055 5.422-4.583 6.861-7.766 1.44-3.183 1.558-7.109-.338-10.044-1.513-2.343-4.277-4.213-4.259-7.002.019-2.952 3.089-4.755 5.226-6.791 3.718-3.545 5.081-9.061 4.528-14.168-.553-5.107-2.801-9.879-5.42-14.299-.872-1.471-1.829-2.959-3.245-3.92-1.416-.96-3.41-1.267-4.82-.298-1.951 1.34-1.844 4.38-.618 6.405 1.226 2.024 3.236 3.431 4.799 5.209 4.571 5.196 4.593 13.799.049 19.02-2.432 2.793-6.127 5.02-6.544 8.7-.377 3.336 2.192 6.268 2.809 9.568.854 4.569-2.073 8.862-3.803 13.177-3.644 9.093-2.027 19.337-.356 28.99 2.277 13.148 4.597 26.444 9.942 38.67 1.945 4.449 5.251 9.375 10.419 8.587 1.98-.302 3.743-1.506 4.909-3.134 2.629-3.674 2.444-8.176 1.732-12.376-3.46-20.402-18.158-37.013-25.165-56.485-10.27-28.539-3.267-60.676-11.033-89.997l-.055-.209c-2.889-10.843-10.86-19.729-21.47-23.382-12.23-4.212-25.27-6.046-38.013-4.15-16.622 2.473-32.588 11.836-40.915 26.433-5.349 9.376-7.359 20.285-11.95 30.055a62.089 62.089 0 0 1-15.398 20.372c-3.162 2.75-6.755 5.37-7.651 9.714-.473 2.295.173 4.785 2.058 6.177 3.067 2.266 6.657.296 8.903-2.182 2.186-2.41 3.773-5.439 6.79-6.926 1.404-.691 3.07-.841 4.524-.264 2.891 1.145 2.426 3.775 3.35 5.83 1.257 2.796 4.916 3.867 7.871 3.052 2.956-.815 5.295-3.058 7.251-5.418 7.137-8.611 10.867-19.971 10.223-31.136-.18-3.128-1.206-6.859-4.224-7.698-2.022-.562-4.226.53-5.519 2.183-1.293 1.653-1.839 3.761-2.205 5.827-1.736 9.805 0 20.189 4.832 28.895 2.378 4.284 6.031 8.54 11.581 7.634 3.579-.585 6.399-3.263 7.819-6.6 2.612-6.142.809-12.688-.98-18.843-.343-1.181-.713-2.409-1.551-3.309-.838-.9-2.296-1.352-3.326-.678-.982.643-1.191 1.974-1.267 3.146-.386 6.016.41 12.33 3.691 17.388 3.28 5.058 9.451 8.531 15.362 7.346 6.377-1.278 11.183-9.03 7.62-14.847-.754-1.23-2.017-2.166-3.459-2.164-3.018.004-3.76 3.389-2.611 5.544.931 1.746 2.715 2.848 4.455 3.792 6.003 3.26 14.293 5.392 18.685-.68.855-1.182 1.396-2.583 1.627-4.023.773-4.805-1.216-9.175-3.698-13.048a49.85 49.85 0 0 0-17.21-16.354c-1.385-.789-3.201-.696-4.365.393-2.244 2.099.004 5.193 2.086 7.044 3.105 2.761 6.289 5.575 10.529 6.488 1.332.286 2.73.331 4.061.034 6.597-1.471 8.004-8.82 8.142-14.951a119.385 119.385 0 0 0-2.383-26.535c-1.154-5.645-2.748-11.28-5.682-16.24-3.175-5.368-8.069-9.926-14.156-11.5-1.674-.433-3.471-.444-5.09.163-4.415 1.658-4.156 5.981-2.153 8.651 1.283 1.709 3.169 2.856 5.076 3.82 5.336 2.699 11.345 4.308 17.301 3.766 5.955-.542 11.827-3.409 15.282-8.291 3.454-4.881 4.111-11.819.966-16.906-1.783-2.885-4.835-4.933-8.122-5.684-3.738-.853-5.042 5.065-1.276 5.786 1.394.267 2.852.214 4.199-.21 4.042-1.273 6.868-5.227 7.595-9.402.727-4.174-.381-8.493-2.243-12.299-2.199-4.494-5.502-8.504-9.77-11.136-1.156-.714-2.474-1.208-3.83-1.113-4.428.309-4.055 5.629-1.246 7.272 2.239 1.311 5.211.648 7.285-.911 2.074-1.559 3.448-3.851 3.586-5.665 1.755-5.938.843-12.61-2.442-17.859-2.63-4.202-6.746-7.435-11.418-9.079-2.549-.897-4.39 2.754-2.025 4.062.156.086.319.161.487.221 2.019.729 4.362-.195 5.796-1.792 1.435-1.597 2.105-3.738 2.477-5.852 1.003-5.7-.008-11.89-3.481-16.52-3.473-4.631-9.574-7.395-15.234-6.185-4.657.994-8.53 4.49-10.757 8.698-2.227 4.209-2.963 9.067-2.968 13.829-.002 1.324.065 2.705.7 3.867.635 1.163 2.001 2.029 3.277 1.675 1.434-.397 2.094-2.021 2.473-3.459 1.005-3.805 1.464-7.814.769-11.689-.695-3.874-2.624-7.61-5.745-10.009-4.125-3.172-10.185-3.58-14.688-.974-4.504 2.607-7.171 8.077-6.43 13.228.643 4.467 3.509 8.253 5.245 12.419 2.283 5.477 2.57 11.762.796 17.424-.536 1.712-1.293 3.423-2.632 4.616-1.786 1.59-4.814 2.041-6.389-.359-.847-1.29-.841-3.019-.083-4.364 1.663-2.953 5.455-3.364 8.383-2.222 4.433 1.729 7.228 6.596 7.123 11.353-.105 4.756-2.8 9.236-6.568 12.14-3.769 2.904-8.506 4.351-13.182 4.812-4.883 1.339-9.591 3.845-12.708 7.835-3.117 3.99-4.393 9.608-2.444 14.281.561 1.342 1.408 2.621 2.653 3.372 1.246.751 2.941.869 4.119.016 1.453-1.052 1.656-3.332.66-4.824-.997-1.491-2.911-2.196-4.7-2.069-1.789.128-3.458.979-4.892 2.055-5.239 3.93-7.66 11.246-5.801 17.525.441 1.487 1.523 3.169 3.059 2.96 1.069-.145 1.793-1.2 2.067-2.244.898-3.428-1.896-7.059-5.328-7.943-3.432-.884-7.113.44-9.961 2.549-4.61 3.414-7.572 8.959-7.847 14.689-.058 1.223.014 2.505.622 3.568.608 1.062 1.886 1.824 3.064 1.492 1.691-.476 2.138-2.74 1.672-4.434-1.021-3.709-5.153-6.26-8.871-5.292-8.219-.725-16.698 3.029-21.685 9.602-.692.912-1.34 1.93-1.419 3.072-.078 1.142.608 2.409 1.734 2.612 1.656.297 2.834-2.009 2.063-3.505-.771-1.496-2.626-2.097-4.308-2.121-2.686-.039-5.507 1.192-6.797 3.548-1.791 3.269-.041 7.572 2.918 9.839 2.959 2.266 6.785 2.989 10.462 3.603 13.087 2.188 27.035 3.749 39.199-1.551 6.831-2.977 12.645-7.973 17.388-13.72 4.744-5.746 8.484-12.248 11.267-18.891 3.194-5.869 5.761-12.181 6.542-18.816.781-6.636-.346-13.644-4.036-19.213-3.69-5.57-10.144-9.467-16.82-9.214-6.676.252-13.156 5.147-14.407 11.71-.21 1.102-.206 2.419.658 3.135 1.326 1.096 3.405-.266 3.939-1.901 1.069-3.276-1.549-6.863-4.804-7.995-3.255-1.132-6.847-.426-10.153.547-8.276 2.435-16.243 6.642-21.824 13.222-5.58 6.579-8.472 15.756-6.248 24.092.9 3.374 2.931 6.86 6.827 7.094 2.613.157 5.074-1.362 6.409-3.614 2.502-4.219 1.153-9.284-1.342-13.205-3.357-5.275-8.834-9.158-15.219-10.527-10.03-1.348-20.484.671-29.291 5.658-3.546 2.007-6.958 4.637-8.661 8.339-.624 1.357-.995 2.941-.466 4.337.53 1.396 2.232 2.4 3.578 1.752 1.285-.618 1.604-2.504.799-3.681-.804-1.178-2.413-1.622-3.808-1.328-1.396.294-2.59 1.209-3.537 2.274-3.092 3.476-3.85 8.517-3.26 13.131.283 2.218.872 4.46 2.195 6.262 1.324 1.802 3.493 3.098 5.722 2.913 1.406-.117 2.829-.915 3.339-2.231.51-1.315-.222-3.074-1.606-3.352-1.949-.391-3.292 2.027-3.328 4.015-.087 4.76 3.446 9.088 7.834 10.934 4.389 1.846 9.425 1.551 14.013.276 1.684-.468 3.604-1.373 3.843-3.105.17-1.234-.668-2.443-1.763-3.037-1.218-.66-2.686-.695-4.054-.613-2.965.177-5.9.746-8.71 1.711-4.915 1.69-11.836 2.879-16.412-.602-2.318-1.762-3.721-4.529-4.314-7.379-.594-2.85-.446-5.801-.135-8.696.61-5.672 1.923-11.47 5.334-16.043 3.411-4.572 9.332-7.636 14.877-6.296 2.038.493 4.239 2.144 3.823 4.2-.399 1.967-2.837 2.687-4.844 2.72-6.179.104-12.196-2.672-16.749-6.85-4.554-4.177-7.746-9.667-9.988-15.425-2.864-7.355-4.298-15.533-.795-23.179 1.211-2.645 3.163-4.912 5.547-6.58 1.44-1.006 3.22-1.922 5.02-1.717 1.497.171 2.957 1.319 3.063 2.822.088 1.247-.791 2.441-1.942 2.927-1.151.487-2.501.342-3.64-.173-3.289-1.487-4.538-6.234-2.626-8.927 2.276-4.709 3.004-10.003 4.76-14.93 1.756-4.926 4.999-9.832 10.019-11.301 3.024-.885 6.434-.342 9.034 1.438 2.599 1.781 4.338 4.764 4.605 7.904.129 1.519-.197 3.273-1.494 4.075-1.024.632-2.399.461-3.428-.164-1.028-.625-1.766-1.632-2.376-2.67-2.975-5.057-3.453-11.232-2.841-17.068.366-3.48 1.149-7.053 3.271-9.836 2.652-3.481 7.163-5.26 11.539-5.199 2.464.033 5.025.655 6.856 2.305 1.831 1.65 2.714 4.489 1.604 6.689-.669 1.326-2.346 2.316-3.654 1.612-.81-.436-1.216-1.36-1.491-2.238-1.194-3.794-.999-8.008.395-11.099 2.905-8.212 10.947-14.346 19.634-14.978 8.688-.632 17.532 4.275 21.594 11.98 4.063 7.705 3.115 17.775-2.315 24.586-.678.851-1.516 1.706-2.597 1.836-1.309.157-2.538-.867-3.018-2.095-.481-1.228-.37-2.602-.162-3.904 1.076-6.73 4.791-13.165 10.568-16.78 5.778-3.615 13.631-4.033 19.377-.369 5.747 3.664 8.673 11.535 6.037 17.82-.808 1.929-2.217 3.762-4.221 4.363-2.004.601-4.563-.534-4.894-2.599-.191-1.193.355-2.379 1.007-3.395 3.853-6.006 12.268-8.58 18.822-5.76 6.554 2.821 10.468 10.702 8.756 17.629-1.803 7.292-8.622 12.18-15.411 15.395-4.539 2.149-9.765 3.869-14.507 2.213-1.653-.578-3.249-1.653-3.898-3.28-.649-1.627.009-3.82 1.663-4.396 1.948-.678 4.028 1.259 4.238 3.31.211 2.052-.869 4.004-2.05 5.694-3.906 5.586-9.382 10.061-16.401 12.743-26.404 15.758-57.81 22.987-88.447 20.358-4.611-.395-9.245-1.008-13.85-.552-4.606.457-9.283 2.117-12.374 5.562-3.09 3.445-4.161 8.912-1.678 12.818 2.482 3.906 8.823 4.991 11.88 1.517.885-1.005 1.477-2.496.389-3.675-.964-1.045-2.594-1.101-3.835-.409-7.127 3.975-11.18 12.627-9.886 20.64 1.203 7.456 6.975 13.98 14.228 16.085 2.643.766 5.676.942 7.886-.911 1.113-.933 1.78-2.384 1.603-3.825-.38-3.095-3.873-3.87-6.247-2.728-1.919.923-3.218 2.774-4.203 4.663-4.826 9.252-3.627 21.314 2.925 29.435 6.551 8.122 18.086 11.844 28.15 9.085 2.131-.584 4.271-1.488 5.718-3.158 1.96-2.263 2.295-6.216-1.121-7.774-1.569-.715-3.445-.512-4.916.389-3.352 2.055-4.192 6.039-4.385 9.729-.834 15.909 8.254 31.919 22.342 39.358 9.443 4.987 22.83 5.538 28.799-4.115 1.299-2.101.686-4.89-1.575-5.882-2.894-1.271-5.293 2.039-6.006 4.918-1.902 7.686.628 16.309 6.381 21.749 6.222 5.883 15.947 7.795 23.893 4.501 1.469-.61 2.763-1.675 3.42-3.124 2.157-4.754-3.718-7.107-6.662-4.823-2.332 1.808-2.672 5.419-1.345 8.054 1.328 2.636 3.947 4.4 7.046 4.991 6.809 1.139 14.043.536 20.194-2.598 6.151-3.133 11.067-8.987 12.212-15.794 1.011-6.008-.882-12.119-3.256-17.73-3.583-8.471-8.305-16.433-11.723-24.972-3.417-8.54-5.502-17.974-3.488-26.949 2.552-11.374 11.297-20.384 20.852-27.061s20.241-11.661 29.513-18.726c9.272-7.065 17.327-16.927 18.458-28.528" stroke="#bdbdbd" stroke-width="0.7" fill="none"/></svg>